<svg xmlns="http://www.w3.org/2000/svg" viewBox="0 0 256 256" role="img" aria-labelledby="title desc">
  <title id="title">Legacy Loop emblem</title>
  <desc id="desc">A maize and blue monogram mark for Legacy Loop</desc>
  <defs>
    <linearGradient id="maizeGradient" x1="0" x2="0" y1="0" y2="1">
      <stop offset="0" stop-color="#ffe066"/>
      <stop offset="1" stop-color="#ffcb05"/>
    </linearGradient>
    <linearGradient id="blueShine" x1="0" x2="1" y1="0" y2="1">
      <stop offset="0" stop-color="#2f5f90"/>
      <stop offset="1" stop-color="#00274c"/>
    </linearGradient>
  </defs>

  <rect x="20" y="20" width="216" height="216" rx="36" fill="url(#blueShine)"/>
  <rect x="28" y="28" width="200" height="200" rx="28" fill="none" stroke="#b8cde5" stroke-opacity="0.65" stroke-width="2"/>

  <path d="M54 188V66h35l39 53 39-53h35v122h-30v-77l-44 58-44-58v77H54z" fill="url(#maizeGradient)"/>
  <path d="M96 72c0-11.05 8.95-20 20-20h24c11.05 0 20 8.95 20 20v8H96v-8z" fill="#b8cde5"/>
  <path d="M102 84h52l-26 34-26-34z" fill="#ffcb05"/>
  <rect x="116" y="112" width="24" height="30" rx="6" fill="#00274c" stroke="#ffcb05" stroke-width="4"/>
  <circle cx="128" cy="124" r="4" fill="#ffcb05"/>
</svg>
